<svg width="68" height="37" viewBox="0 0 68 37" fill="none" xmlns="http://www.w3.org/2000/svg">
<path d="M6.57809 29.4764C6.54609 29.7324 6.53009 29.9564 6.53009 30.1484C6.53009 30.3084 6.51409 30.4844 6.48209 30.6764C6.48209 31.0284 6.48209 31.3804 6.48209 31.7324C6.48209 32.0844 6.46609 32.4364 6.43409 32.7884C6.37009 33.3324 6.21009 33.8124 5.95409 34.2284C5.73009 34.6764 5.44209 35.0764 5.09009 35.4284C4.51409 36.0364 3.81009 36.2924 2.97809 36.1964C2.14609 36.1324 1.49009 35.7484 1.01009 35.0444C0.306087 34.0844 -0.029913 33.0604 0.00208696 31.9724C0.066087 30.5004 0.114087 29.0444 0.146087 27.6044C0.178087 26.1644 0.226087 24.7244 0.290087 23.2844C0.322087 22.5804 0.322087 21.8924 0.290087 21.2204C0.290087 20.5484 0.322087 19.8604 0.386087 19.1564C0.514087 16.6284 0.706087 14.0844 0.962087 11.5244C1.02609 10.9164 1.10609 10.3244 1.20209 9.74836C1.33009 9.14036 1.45809 8.53236 1.58609 7.92436C1.74609 7.18836 2.14609 6.62836 2.78609 6.24436C3.39409 5.89236 3.98609 5.81236 4.56209 6.00436C5.17009 6.19636 5.60209 6.61237 5.85809 7.25237C5.98609 7.54037 6.06609 7.84436 6.09809 8.16436C6.16209 8.45236 6.21009 8.75636 6.24209 9.07636C6.40209 11.4764 6.51409 13.8764 6.57809 16.2764C6.67409 18.6764 6.70609 21.0764 6.67409 23.4764C6.67409 23.6364 6.67409 23.7964 6.67409 23.9564C6.70609 24.1164 6.72209 24.2924 6.72209 24.4844C7.07409 24.4524 7.41009 24.4364 7.73009 24.4364C8.05009 24.4364 8.37009 24.4044 8.69009 24.3404C9.68209 24.1804 10.6101 23.9404 11.4741 23.6204C12.3701 23.3004 13.2341 22.8684 14.0661 22.3244C15.0901 21.6204 15.9381 20.8044 16.6101 19.8764C17.2821 18.9164 17.8101 17.8604 18.1941 16.7084C18.3861 16.1324 18.4981 15.5404 18.5301 14.9324C18.5621 14.3244 18.5461 13.7164 18.4821 13.1084C18.4821 12.7564 18.4661 12.4364 18.4341 12.1484C18.4021 11.8284 18.3701 11.4924 18.3381 11.1404C18.2741 10.4364 18.1141 9.78036 17.8581 9.17237C17.6341 8.53236 17.3301 7.92436 16.9461 7.34836C15.7941 5.71636 14.2261 4.86836 12.2421 4.80436C11.2501 4.77237 10.2581 4.78836 9.26609 4.85236C8.30609 4.88436 7.34609 4.93236 6.38609 4.99637C6.03409 5.02836 5.69809 5.07636 5.37809 5.14036C5.09009 5.17236 4.77009 5.22037 4.41809 5.28436C4.06609 5.34837 3.73009 5.34837 3.41009 5.28436C2.73809 5.18836 2.27409 4.78836 2.01809 4.08437C1.79409 3.41236 1.95409 2.85236 2.49809 2.40436C2.85009 2.08436 3.23409 1.86036 3.65009 1.73236C5.15409 1.18836 6.65809 0.756363 8.16209 0.436364C9.66609 0.116364 11.2181 -0.0276361 12.8181 0.00436353C17.2981 0.036365 20.7221 2.00437 23.0901 5.90836C23.5381 6.67636 23.8741 7.49236 24.0981 8.35637C24.3541 9.18837 24.5461 10.0364 24.6741 10.9004C24.9941 12.9164 24.9621 14.9804 24.5781 17.0924C24.3221 18.4044 23.8901 19.6204 23.2821 20.7404C22.7061 21.8604 21.9861 22.9324 21.1221 23.9564C18.2101 27.2524 14.5301 29.0444 10.0821 29.3324C9.69809 29.3644 9.29809 29.3804 8.88209 29.3804C8.49809 29.3804 8.11409 29.3964 7.73009 29.4284C7.57009 29.4284 7.39409 29.4444 7.20209 29.4764C7.04209 29.4764 6.83409 29.4764 6.57809 29.4764ZM18.7221 7.92436C18.8181 8.21236 18.8981 8.50036 18.9621 8.78836C19.0581 9.04436 19.1381 9.30036 19.2021 9.55636C19.4581 10.6444 19.5701 11.7324 19.5381 12.8204C19.5381 13.8764 19.4581 14.9644 19.2981 16.0844C19.2661 16.2124 19.2341 16.3404 19.2021 16.4684C19.1701 16.5964 19.2181 16.7244 19.3461 16.8524C19.6981 16.3404 19.9381 15.6524 20.0661 14.7884C20.2261 13.8924 20.2741 12.9964 20.2101 12.1004C20.1461 11.2044 19.9861 10.3724 19.7301 9.60437C19.4741 8.80437 19.1381 8.24436 18.7221 7.92436ZM0.914087 30.7724C0.818087 31.0924 0.786087 31.4444 0.818087 31.8284C0.850087 32.1804 0.914087 32.5324 1.01009 32.8844C1.10609 33.2364 1.23409 33.5564 1.39409 33.8444C1.58609 34.1324 1.79409 34.3724 2.01809 34.5644C2.49809 34.9484 2.97809 35.1404 3.45809 35.1404C3.65009 35.1404 3.82609 35.1244 3.98609 35.0924C4.17809 35.0924 4.33809 35.0124 4.46609 34.8524C4.43409 34.8204 4.41809 34.7884 4.41809 34.7564L4.37009 34.7084C4.24209 34.7084 4.08209 34.6764 3.89009 34.6124C2.86609 34.5164 2.13009 33.9724 1.68209 32.9804C1.58609 32.7244 1.49009 32.4844 1.39409 32.2604C1.33009 32.0364 1.26609 31.7964 1.20209 31.5404C1.13809 31.4124 1.09009 31.3004 1.05809 31.2044C1.02609 31.0764 0.978087 30.9324 0.914087 30.7724ZM1.68209 11.5244H1.87409C1.93809 11.2684 2.00209 10.9964 2.06609 10.7084C2.13009 10.4204 2.19409 10.1324 2.25809 9.84436C2.32209 9.55636 2.40209 9.26837 2.49809 8.98037C2.59409 8.66037 2.72209 8.35637 2.88209 8.06837C3.01009 7.81236 3.15409 7.57236 3.31409 7.34836C3.50609 7.12436 3.69809 6.86836 3.89009 6.58036C3.50609 6.67637 3.15409 6.88437 2.83409 7.20437C2.51409 7.49237 2.25809 7.87637 2.06609 8.35637C1.87409 8.80437 1.73009 9.30036 1.63409 9.84436C1.57009 10.3884 1.58609 10.9484 1.68209 11.5244ZM3.02609 2.59636C2.45009 3.42837 2.53009 4.06837 3.26609 4.51637C3.61809 4.77236 3.97009 4.88436 4.32209 4.85236C4.67409 4.82036 4.96209 4.64436 5.18609 4.32437C4.64209 4.32437 4.14609 4.24437 3.69809 4.08437C3.28209 3.89236 3.05809 3.39636 3.02609 2.59636Z" fill="white"/>
<path d="M31.3847 27.9884C30.9047 28.0204 30.4247 28.0524 29.9447 28.0844C29.4967 28.1164 29.0327 28.1164 28.5527 28.0844C28.0087 28.0844 27.5127 27.9244 27.0647 27.6044C26.6487 27.2524 26.4247 26.7564 26.3927 26.1164C26.3607 25.6684 26.4567 25.2844 26.6807 24.9644C26.9367 24.6124 27.2727 24.3564 27.6887 24.1964C28.4887 23.8764 29.3527 23.6364 30.2807 23.4764C31.0167 23.3164 31.7527 23.1884 32.4887 23.0924C33.2247 22.9644 33.9607 22.8684 34.6967 22.8044C35.3367 22.7404 35.9447 22.7244 36.5207 22.7564C37.1287 22.7884 37.7367 22.8364 38.3447 22.9004C38.8887 22.9644 39.3367 23.2684 39.6887 23.8124C40.0727 24.3244 40.2487 24.8524 40.2167 25.3964C40.1527 26.0044 39.8967 26.5324 39.4487 26.9804C39.0007 27.4284 38.4887 27.6844 37.9127 27.7484C36.8247 27.8124 35.7367 27.8764 34.6487 27.9404C33.5607 27.9724 32.4727 28.0204 31.3847 28.0844V27.9884ZM39.2567 24.9164C39.2247 24.8524 39.2087 24.7884 39.2087 24.7244C39.2087 24.6284 39.1767 24.5324 39.1127 24.4364C39.0807 24.3724 39.0327 24.3084 38.9687 24.2444C38.9047 24.1804 38.8407 24.1164 38.7767 24.0524C38.7447 24.1164 38.7127 24.1964 38.6807 24.2924C38.6487 24.3564 38.6327 24.4204 38.6327 24.4844C38.6327 24.8364 38.5687 25.1724 38.4407 25.4924C38.3447 25.8124 38.1527 26.1004 37.8647 26.3564C37.8007 26.4204 37.7527 26.4844 37.7207 26.5484C37.7207 26.6124 37.7047 26.6764 37.6727 26.7404C37.8647 26.8044 38.0087 26.8364 38.1047 26.8364C38.8727 26.5804 39.2567 25.9404 39.2567 24.9164ZM29.2247 27.3644C29.1287 27.3004 29.0647 27.2524 29.0327 27.2204C29.0007 27.1564 28.9527 27.1084 28.8887 27.0764C28.2807 26.6284 27.9287 26.0684 27.8327 25.3964C27.7687 25.2684 27.7047 25.1564 27.6407 25.0604C27.6087 25.1244 27.5607 25.1884 27.4967 25.2524C27.4647 25.2844 27.4327 25.3324 27.4007 25.3964C27.2407 26.0364 27.4167 26.6444 27.9287 27.2204C28.0887 27.3804 28.2807 27.4604 28.5047 27.4604C28.7287 27.4604 28.9687 27.4284 29.2247 27.3644ZM36.5687 8.02036C36.9207 8.02036 37.2567 8.05236 37.5767 8.11636C37.9287 8.18036 38.2647 8.32436 38.5847 8.54836C39.3527 9.06036 39.7047 9.73236 39.6407 10.5644C39.5767 11.5244 39.0807 12.1644 38.1527 12.4844C37.7367 12.6124 37.3207 12.7084 36.9047 12.7724C36.5207 12.8364 36.1047 12.9004 35.6567 12.9644C35.1447 13.0604 34.6327 13.1564 34.1207 13.2524C33.6407 13.3164 33.1447 13.3644 32.6327 13.3964C32.0887 13.4284 31.5287 13.4924 30.9527 13.5884C30.4087 13.6524 29.8647 13.7164 29.3207 13.7804C28.6487 13.8764 28.0887 13.7324 27.6407 13.3484C27.1927 12.9644 26.9207 12.4364 26.8247 11.7644C26.7607 11.4444 26.8247 11.0764 27.0167 10.6604C27.2087 10.2124 27.4967 9.89236 27.8807 9.70036C28.3927 9.41236 28.9207 9.18836 29.4647 9.02836C30.0087 8.86836 30.5687 8.75636 31.1447 8.69237C31.7847 8.59636 32.4087 8.50036 33.0167 8.40436C33.6567 8.30836 34.2967 8.22836 34.9367 8.16436C35.1927 8.10036 35.4647 8.06837 35.7527 8.06837C36.0407 8.06837 36.3127 8.05236 36.5687 8.02036ZM29.2247 13.0124C28.9687 12.6604 28.7287 12.3244 28.5047 12.0044C28.2807 11.6524 28.0567 11.3004 27.8327 10.9484C27.5447 11.2364 27.5607 11.6524 27.8807 12.1964C28.0407 12.5484 28.2167 12.7884 28.4087 12.9164C28.6327 13.0444 28.9047 13.0764 29.2247 13.0124ZM37.2407 11.8604C37.3047 11.8924 37.3847 11.9084 37.4807 11.9084C37.8647 11.8444 38.1847 11.5724 38.4407 11.0924C38.7287 10.6124 38.8087 10.1964 38.6807 9.84436C38.6487 9.81236 38.6167 9.78036 38.5847 9.74836C38.5527 9.68436 38.5047 9.66836 38.4407 9.70036C38.3127 9.70036 38.2487 9.76436 38.2487 9.89236C38.1527 10.6284 37.8327 11.2364 37.2887 11.7164C37.2567 11.7164 37.2407 11.7324 37.2407 11.7644C37.2727 11.7964 37.2727 11.8284 37.2407 11.8604ZM26.8247 19.4924C26.8247 18.4684 27.2247 17.7964 28.0247 17.4764C29.1767 17.0604 30.3767 16.8204 31.6247 16.7564C32.8727 16.6604 34.0887 16.5164 35.2727 16.3244C35.5927 16.2604 35.9127 16.2924 36.2327 16.4204C36.5847 16.5164 36.8887 16.6764 37.1447 16.9004C37.4327 17.0924 37.6567 17.3484 37.8167 17.6684C37.9767 17.9564 38.0567 18.2604 38.0567 18.5804C38.0247 19.1244 37.8487 19.5724 37.5287 19.9244C37.2407 20.2764 36.7607 20.5164 36.0887 20.6444C35.6407 20.7404 35.1767 20.8044 34.6967 20.8364C34.2167 20.8684 33.7527 20.9164 33.3047 20.9804C32.8567 21.0444 32.4087 21.0924 31.9607 21.1244C31.5447 21.1564 31.1127 21.1884 30.6647 21.2204C30.0567 21.2204 29.4487 21.1724 28.8407 21.0764C28.6487 21.0444 28.4407 21.0124 28.2167 20.9804C28.0247 20.9164 27.8327 20.8364 27.6407 20.7404C27.3527 20.5804 27.1447 20.3884 27.0167 20.1644C26.8887 19.9084 26.8247 19.6844 26.8247 19.4924ZM36.7607 17.3324C36.7927 17.8764 36.7287 18.3564 36.5687 18.7724C36.4087 19.1884 36.1687 19.5724 35.8487 19.9244C36.4567 19.9884 36.8727 19.7004 37.0967 19.0604C37.2247 18.7404 37.2567 18.4204 37.1927 18.1004C37.1607 17.7804 37.0167 17.5244 36.7607 17.3324ZM28.1687 18.1964C27.9447 18.3884 27.8007 18.6284 27.7367 18.9164C27.7047 19.2044 27.7527 19.4764 27.8807 19.7324C28.1367 20.3084 28.5687 20.5484 29.1767 20.4524C28.8567 20.1324 28.5847 19.7964 28.3607 19.4444C28.1687 19.0924 28.1047 18.6764 28.1687 18.1964Z" fill="white"/>
<path d="M47.2397 20.0684C47.2397 20.2284 47.2397 20.4044 47.2397 20.5964C47.2717 20.7564 47.2717 20.9324 47.2397 21.1244C47.1757 21.6684 47.1437 22.2284 47.1437 22.8044C47.1437 23.3804 47.0157 23.9404 46.7597 24.4844C46.2797 25.6684 45.4477 26.2604 44.2637 26.2604C43.7197 26.2604 43.2077 26.0684 42.7277 25.6844C42.2797 25.3004 41.9757 24.8204 41.8157 24.2444C41.7837 24.0844 41.7517 23.9404 41.7197 23.8124C41.7197 23.6524 41.7197 23.4924 41.7197 23.3324V18.0524C41.7197 17.3484 41.7197 16.6604 41.7197 15.9884C41.7517 15.2844 41.7837 14.5644 41.8157 13.8284C41.8477 13.3804 41.8957 12.9324 41.9597 12.4844C42.0237 12.0044 42.1037 11.5404 42.1997 11.0924C42.3917 10.2604 42.9037 9.71637 43.7357 9.46037C44.2157 9.30037 44.6477 9.31636 45.0317 9.50836C45.4477 9.70037 45.7837 9.98837 46.0397 10.3724C46.5837 11.0764 47.0797 11.7804 47.5277 12.4844C48.0077 13.1884 48.4877 13.9084 48.9677 14.6444C49.2557 15.0924 49.5437 15.5564 49.8317 16.0364C50.1517 16.5164 50.4557 16.9804 50.7437 17.4284C50.7757 17.3964 50.7917 17.3804 50.7917 17.3804C50.8237 17.3804 50.8557 17.3644 50.8877 17.3324C50.8877 17.1724 50.9037 17.0444 50.9357 16.9484C50.9357 16.1804 50.9357 15.4124 50.9357 14.6444C50.9357 13.8444 50.9677 13.0604 51.0317 12.2924C51.0637 11.8444 51.1117 11.4124 51.1757 10.9964C51.2717 10.5804 51.3837 10.1644 51.5117 9.74836C51.6717 9.20436 51.9917 8.75636 52.4717 8.40436C52.9837 8.05236 53.4637 7.90836 53.9117 7.97236C54.5197 8.03636 55.0317 8.26036 55.4477 8.64436C55.8637 8.99636 56.1197 9.47637 56.2157 10.0844C56.3117 10.8844 56.3597 11.7964 56.3597 12.8204C56.3597 13.8124 56.3277 14.8364 56.2637 15.8924C56.1997 16.9164 56.1197 17.8924 56.0237 18.8204C55.9277 19.7484 55.8477 20.5164 55.7837 21.1244C55.6877 21.7644 55.5597 22.3884 55.3997 22.9964C55.2397 23.6044 54.9357 24.1484 54.4877 24.6284C54.0077 25.1724 53.4317 25.4604 52.7597 25.4924C52.0877 25.5244 51.4637 25.3164 50.8877 24.8684C50.4077 24.4524 49.9917 23.9884 49.6397 23.4764C49.3197 22.9644 48.9837 22.4684 48.6317 21.9884C48.4397 21.7324 48.2637 21.4764 48.1037 21.2204C47.9757 20.9644 47.8317 20.7084 47.6717 20.4524C47.5437 20.2604 47.4317 20.1164 47.3357 20.0204C47.3357 20.0524 47.3037 20.0684 47.2397 20.0684ZM53.9597 24.0044C53.7997 24.0044 53.7197 24.0044 53.7197 24.0044C53.1757 24.0684 52.6797 23.9884 52.2317 23.7644C51.8157 23.5084 51.4477 23.1564 51.1277 22.7084C50.9997 22.5484 50.8717 22.4044 50.7437 22.2764C50.6157 22.1164 50.4877 21.9564 50.3597 21.7964C50.2957 21.7324 50.2317 21.7004 50.1677 21.7004C50.1357 21.7004 50.0877 21.6844 50.0237 21.6524C50.0237 21.7164 50.0077 21.7804 49.9757 21.8444C49.9757 21.8764 49.9917 21.9244 50.0237 21.9884C50.2157 22.2764 50.3917 22.5804 50.5517 22.9004C50.7437 23.1884 50.9517 23.4604 51.1757 23.7164C51.4317 24.0364 51.7357 24.2764 52.0877 24.4364C52.4717 24.5964 52.8877 24.6444 53.3357 24.5804C53.4957 24.5484 53.6397 24.5164 53.7677 24.4844C53.8957 24.4204 53.9597 24.2604 53.9597 24.0044ZM52.3757 12.7724C52.5037 12.4204 52.5997 12.0524 52.6637 11.6684C52.7597 11.2844 52.8717 10.9164 52.9997 10.5644C53.1277 10.2124 53.3037 9.89237 53.5277 9.60437C53.7837 9.31637 54.1197 9.09237 54.5357 8.93237C54.2157 8.58036 53.7997 8.61236 53.2877 9.02836C53.0317 9.22036 52.8077 9.47636 52.6157 9.79637C52.4557 10.1164 52.3277 10.4524 52.2317 10.8044C52.1677 11.1564 52.1357 11.5084 52.1357 11.8604C52.1357 12.2124 52.2157 12.5164 52.3757 12.7724ZM42.7757 22.1324C42.7437 22.1324 42.7117 22.1484 42.6797 22.1804C42.6797 22.1804 42.6637 22.1804 42.6317 22.1804C42.5997 22.2444 42.5677 22.3084 42.5357 22.3724C42.5037 22.4044 42.4877 22.4524 42.4877 22.5164C42.4877 22.6764 42.4877 22.8204 42.4877 22.9484C42.4877 23.0764 42.5037 23.2204 42.5357 23.3804C42.5997 23.9244 42.8397 24.4204 43.2557 24.8684C43.7037 25.2844 44.1677 25.4924 44.6477 25.4924C44.7117 25.4924 44.7757 25.4764 44.8397 25.4444C44.9037 25.4124 44.9677 25.3804 45.0317 25.3484C44.9677 25.2844 44.9197 25.2364 44.8877 25.2044C44.8877 25.1404 44.8557 25.0924 44.7917 25.0604C44.2477 24.8364 43.8317 24.5164 43.5437 24.1004C43.2557 23.6844 43.0477 23.1884 42.9197 22.6124C42.9197 22.5484 42.9037 22.4844 42.8717 22.4204C42.8397 22.3244 42.8077 22.2284 42.7757 22.1324ZM44.5997 10.5644C44.3437 10.3084 44.0877 10.2764 43.8317 10.4684C43.4477 10.6924 43.1437 11.0444 42.9197 11.5244C42.7277 12.0044 42.6797 12.4684 42.7757 12.9164C42.7757 12.9804 42.7917 13.0284 42.8237 13.0604C42.8557 13.0924 42.8877 13.1404 42.9197 13.2044C42.9837 13.1404 43.0317 13.0924 43.0637 13.0604C43.1277 13.0284 43.1757 12.9804 43.2077 12.9164C43.3037 12.7244 43.3517 12.5324 43.3517 12.3404C43.5117 11.5084 43.9277 10.9164 44.5997 10.5644Z" fill="white"/>
<path d="M61.7818 28.7564C60.7258 28.8204 59.9098 28.4364 59.3338 27.6044C59.0138 27.1244 58.9178 26.5804 59.0458 25.9724C59.1738 25.3644 59.4938 24.8844 60.0058 24.5324C60.2618 24.3404 60.5338 24.1644 60.8218 24.0044C61.1098 23.8124 61.3818 23.6204 61.6378 23.4284C62.0218 23.1724 62.2138 22.8684 62.2138 22.5164C62.2138 22.1324 62.0218 21.8124 61.6378 21.5564C61.3818 21.3964 61.1258 21.2524 60.8698 21.1244C60.6138 20.9964 60.3578 20.8524 60.1018 20.6924C58.8858 19.9244 58.1498 18.8204 57.8938 17.3804C57.7338 16.2604 57.8298 15.2364 58.1818 14.3084C58.5338 13.3804 59.0298 12.5004 59.6698 11.6684C60.2138 10.9644 60.8218 10.3564 61.4938 9.84436C62.1658 9.33236 62.9178 8.94836 63.7498 8.69237C64.2298 8.53236 64.6938 8.48436 65.1418 8.54836C65.5898 8.61236 65.9898 8.82036 66.3418 9.17237C66.8858 9.71636 67.1258 10.3244 67.0618 10.9964C66.9978 11.6364 66.6458 12.1484 66.0058 12.5324C64.7898 13.3004 64.0378 14.3724 63.7498 15.7484C63.6538 16.0684 63.7338 16.3404 63.9898 16.5644C64.5018 16.9804 64.9658 17.4284 65.3818 17.9084C65.7978 18.3564 66.1498 18.8844 66.4378 19.4924C66.9818 20.6444 67.1738 21.9244 67.0138 23.3324C66.8538 24.7084 66.2938 25.8924 65.3338 26.8844C64.9178 27.3004 64.5018 27.6684 64.0858 27.9884C63.6698 28.3084 63.1738 28.5324 62.5978 28.6604C62.4378 28.6924 62.2938 28.7084 62.1658 28.7084C62.0698 28.7084 61.9418 28.7244 61.7818 28.7564ZM60.7258 19.1564C60.4378 18.6124 60.1658 18.1004 59.9098 17.6204C59.6538 17.1084 59.5418 16.5484 59.5738 15.9404C59.6058 15.3644 59.7018 14.8204 59.8618 14.3084C60.0538 13.7644 60.3098 13.2204 60.6298 12.6764C60.3738 12.7404 60.1338 12.9004 59.9098 13.1564C59.6858 13.3804 59.4938 13.6684 59.3338 14.0204C59.1738 14.3404 59.0458 14.7084 58.9498 15.1244C58.8858 15.5084 58.8698 15.8924 58.9018 16.2764C58.9338 16.9484 59.1258 17.5884 59.4778 18.1964C59.8618 18.8044 60.2778 19.1244 60.7258 19.1564ZM60.2458 25.8764H60.0538C60.0538 26.0044 60.0378 26.1324 60.0058 26.2604C60.0058 26.3564 60.0218 26.4524 60.0538 26.5484C60.1178 26.9004 60.2938 27.2044 60.5818 27.4604C60.9018 27.7164 61.2698 27.8764 61.6858 27.9404C61.8458 27.9404 61.9738 27.9244 62.0698 27.8924C62.1978 27.8284 62.3418 27.7804 62.5018 27.7484C62.4058 27.6844 62.2938 27.6204 62.1658 27.5564C62.0698 27.4604 61.9578 27.3964 61.8298 27.3644C61.4778 27.2364 61.1578 27.0924 60.8698 26.9324C60.6138 26.7724 60.4538 26.4844 60.3898 26.0684C60.3898 26.0364 60.3418 25.9724 60.2458 25.8764ZM65.8138 10.0364C65.6218 10.4204 65.4298 10.7884 65.2378 11.1404C65.0778 11.4604 64.9018 11.7964 64.7098 12.1484L64.8538 12.2924C65.1098 12.1964 65.3018 12.0524 65.4298 11.8604C65.5898 11.6684 65.7178 11.4444 65.8138 11.1884C65.9098 11.0284 65.9738 10.8524 66.0058 10.6604C66.0378 10.4684 65.9738 10.2604 65.8138 10.0364Z" fill="white"/>
</svg>
